<svg id="visual" viewBox="0 0 900 600" width="900" height="600" xmlns="http://www.w3.org/2000/svg" xmlns:xlink="http://www.w3.org/1999/xlink" version="1.1"><rect x="0" y="0" width="900" height="600" fill="#520baf"></rect><defs><linearGradient id="grad1_0" x1="33.3%" y1="0%" x2="100%" y2="100%"><stop offset="20%" stop-color="#520baf" stop-opacity="1"></stop><stop offset="80%" stop-color="#520baf" stop-opacity="1"></stop></linearGradient></defs><defs><linearGradient id="grad2_0" x1="0%" y1="0%" x2="66.7%" y2="100%"><stop offset="20%" stop-color="#520baf" stop-opacity="1"></stop><stop offset="80%" stop-color="#520baf" stop-opacity="1"></stop></linearGradient></defs><g transform="translate(900, 0)"><path d="M0 297.5C-20.7 245.7 -41.3 193.9 -55 169.3C-68.7 144.7 -75.4 147.3 -115.8 159.4C-156.2 171.4 -230.4 192.9 -240.6 174.8C-250.9 156.8 -197.1 99.4 -195.9 63.7C-194.7 27.9 -246.1 14 -297.5 0L0 0Z" fill="#2c085c"></path></g><g transform="translate(0, 600)"><path d="M0 -297.5C36.3 -302.6 72.7 -307.8 91.9 -282.9C111.2 -258 113.3 -203 128.1 -176.4C142.9 -149.7 170.3 -151.4 194.2 -141.1C218 -130.7 238.3 -108.3 254.9 -82.8C271.5 -57.3 284.5 -28.6 297.5 0L0 0Z" fill="#2c085c"></path></g></svg>