<svg id="visual" viewBox="0 0 900 600" width="900" height="600" xmlns="http://www.w3.org/2000/svg" xmlns:xlink="http://www.w3.org/1999/xlink" version="1.1"><rect x="0" y="0" width="900" height="600" fill="#520baf"></rect><path d="M0 498L7.8 503C15.7 508 31.3 518 47.2 522.8C63 527.7 79 527.3 94.8 513.3C110.7 499.3 126.3 471.7 142 461.8C157.7 452 173.3 460 189.2 459C205 458 221 448 236.8 443.3C252.7 438.7 268.3 439.3 284.2 454.8C300 470.3 316 500.7 331.8 501.7C347.7 502.7 363.3 474.3 379 459.5C394.7 444.7 410.3 443.3 426.2 442C442 440.7 458 439.3 473.8 444.3C489.7 449.3 505.3 460.7 521 473.3C536.7 486 552.3 500 568.2 493.8C584 487.7 600 461.3 615.8 461.2C631.7 461 647.3 487 663.2 497C679 507 695 501 710.8 489.3C726.7 477.7 742.3 460.3 758 451.7C773.7 443 789.3 443 805.2 456.2C821 469.3 837 495.7 852.8 494.2C868.7 492.7 884.3 463.3 892.2 448.7L900 434L900 601L892.2 601C884.3 601 868.7 601 852.8 601C837 601 821 601 805.2 601C789.3 601 773.7 601 758 601C742.3 601 726.7 601 710.8 601C695 601 679 601 663.2 601C647.3 601 631.7 601 615.8 601C600 601 584 601 568.2 601C552.3 601 536.7 601 521 601C505.3 601 489.7 601 473.8 601C458 601 442 601 426.2 601C410.3 601 394.7 601 379 601C363.3 601 347.7 601 331.8 601C316 601 300 601 284.2 601C268.3 601 252.7 601 236.8 601C221 601 205 601 189.2 601C173.3 601 157.7 601 142 601C126.3 601 110.7 601 94.8 601C79 601 63 601 47.2 601C31.3 601 15.7 601 7.8 601L0 601Z" fill="#2c085c" stroke-linecap="round" stroke-linejoin="miter"></path></svg>